<svg xmlns="http://www.w3.org/2000/svg" viewBox="0 0 234.78 234.78"><defs><style>.cls-1{fill:#fff;}.cls-2{fill:none;stroke:#fff;stroke-linecap:round;stroke-miterlimit:10;stroke-width:7px;}</style></defs><g id="Layer_2" data-name="Layer 2"><g id="Layer_1-2" data-name="Layer 1"><path class="cls-1" d="M117.39,6a111.4,111.4,0,0,1,78.77,190.16A111.39,111.39,0,1,1,38.63,38.63,110.64,110.64,0,0,1,117.39,6m0-6A117.39,117.39,0,1,0,234.78,117.39,117.39,117.39,0,0,0,117.39,0Z"/><path class="cls-2" d="M58.68,65.13A191.89,191.89,0,0,1,62.61,100"/><path class="cls-2" d="M132.46,48.66l4.56,41"/><path class="cls-2" d="M191.55,89.61c-2.12,16.76-6,33.52-14,48.4s-20.43,27.82-36.14,34c-17,6.72-36.57,5-53.54-1.84s-31.62-18.45-44.64-31.3"/></g></g></svg>